# xmcd
#
# Track frame offsets:
# 150
# 13953
# 24889
# 41531
# 64546
# 76904
# 91358
# 105252
# 122440
#
# Disc length: 2026 seconds
#
#
# Revision: 0
# Processed by: cddbd v1.5.1PL0 Copyright (c) Steve Scherf et al.
# Submitted via: FreeRIP 2.942 
#
DISCID=5b07e809
DTITLE=The Floorwalkers - The Floorwalkers
DYEAR=2005
DGENRE=Blues
TTITLE0=Lounge Song
TTITLE1=Dead Memories
TTITLE2=For the Better
TTITLE3=Spooks
TTITLE4=You Don't Have to Be So Strong
TTITLE5=One
TTITLE6=Simple Eyes
TTITLE7=Glory
TTITLE8=Bad Dreams
EXTD=
EXTT0=
EXTT1=
EXTT2=
EXTT3=
EXTT4=
EXTT5=
EXTT6=
EXTT7=
EXTT8=
PLAYORDER=
